<svg xmlns="http://www.w3.org/2000/svg" height="800" width="1200" viewBox="-108.68355 -61.1935 941.9241 367.161"><path fill="#3FAE2A" d="M0 0h724.557v244.774H0z"/><path d="M638.546 71.355c3.593 0 6.428 2.793 6.428 6.346 0 3.633-2.835 6.422-6.468 6.422-3.628 0-6.5-2.789-6.5-6.422 0-3.553 2.872-6.346 6.5-6.346zm-.079 1.116c-2.871 0-5.063 2.353-5.063 5.229 0 2.951 2.192 5.266 5.143 5.266 2.874.04 4.992-2.315 4.992-5.228 0-2.915-2.118-5.268-5.032-5.268h-.04zm-1.115 8.741h-1.238v-6.663a12.77 12.77 0 012.313-.202c1.12 0 1.675.202 2.119.518.396.28.68.798.68 1.396 0 .84-.602 1.362-1.319 1.599v.077c.598.244.915.762 1.115 1.597.204 1.039.323 1.438.481 1.679h-1.28c-.198-.241-.357-.839-.518-1.758-.158-.716-.598-1.033-1.556-1.033h-.797zm0-3.753h.837c.918 0 1.717-.281 1.717-1.076 0-.64-.399-1.075-1.597-1.075-.482 0-.758.04-.957.078zm-291.101 64.75a26.183 26.183 0 01-14.131 23.295c-20.259 10.555-49.661 10.555-69.912 0a26.172 26.172 0 01-14.142-23.295v-23.36A26.183 26.183 0 01262.2 95.552h.002c20.256-10.553 49.658-10.553 69.917 0a26.184 26.184 0 0114.131 23.297v23.36zm-79.578-23.36v23.36c0 2.915 1.54 5.455 4.125 6.798 14.787 7.701 37.946 7.701 52.722 0 2.588-1.343 4.127-3.883 4.127-6.798v-23.36c0-2.911-1.542-5.454-4.127-6.797-14.776-7.704-37.941-7.704-52.722 0-2.585 1.343-4.125 3.886-4.125 6.797zm111.614-6.797c14.784-7.704 37.947-7.704 52.732 0 2.586 1.343 4.127 3.886 4.127 6.797v23.36c0 2.915-1.538 5.455-4.127 6.798-14.785 7.701-37.945 7.701-52.732 0-2.585-1.343-4.129-3.883-4.129-6.798v-23.36c0-2.911 1.544-5.454 4.129-6.797zm-22.731 30.157a26.182 26.182 0 0014.138 23.295c20.258 10.555 49.664 10.555 69.924 0a26.182 26.182 0 0014.132-23.295v-23.36a26.185 26.185 0 00-14.132-23.297c-18.819-9.805-45.515-10.489-65.459-2.082V72.52a1.158 1.158 0 00-1.613-1.073l-15.567 7.779a2.323 2.323 0 00-1.422 2.142v60.841zM537.474 81.72a4.956 4.956 0 01-2.676 4.414c-3.84 1.996-9.412 1.996-13.251 0a4.969 4.969 0 01-2.677-4.414v-4.452a4.958 4.958 0 012.677-4.411c3.839-2.003 9.411-2.003 13.251 0a4.947 4.947 0 012.676 4.411zm-55.816 0a4.96 4.96 0 01-2.677 4.414c-3.835 1.996-9.407 1.996-13.252 0a4.964 4.964 0 01-2.676-4.414v-4.452a4.953 4.953 0 012.676-4.411c3.845-2.003 9.417-2.003 13.252 0a4.952 4.952 0 012.677 4.411zm27.908 85.89c0 .64-.521 1.16-1.161 1.16h-16.282a1.162 1.162 0 01-1.164-1.16V81.396c0-.644.268-1.225.683-1.646.214-.208.46-.38.742-.5l15.568-7.78c.137-.058.291-.087.453-.087.317 0 .608.128.819.34.213.21.342.498.342.823zm9.304-65.311c0-.638.261-1.223.68-1.643.21-.213.459-.381.736-.501l15.57-7.78a1.153 1.153 0 011.273.246c.212.213.344.507.344.826v74.163c0 .64-.518 1.16-1.163 1.16h-16.281a1.16 1.16 0 01-1.159-1.16zm-37.212 0c0-.638-.258-1.223-.68-1.643a2.395 2.395 0 00-.741-.501l-15.566-7.78a1.25 1.25 0 00-.453-.093c-.32 0-.608.131-.825.339a1.19 1.19 0 00-.339.826v74.163c0 .64.521 1.16 1.164 1.16h16.28c.644 0 1.16-.521 1.16-1.16zm-383.47 16.55c0-2.911 1.544-5.454 4.126-6.797 13.155-6.862 32.941-7.593 47.557-2.25v57.808c0 .64.518 1.16 1.163 1.16h16.28c.642 0 1.163-.521 1.163-1.16v-57.806c14.614-5.345 34.399-4.614 47.553 2.248 2.589 1.343 4.127 3.886 4.127 6.797v48.76c0 .64.518 1.16 1.163 1.16h16.28c.64 0 1.165-.521 1.165-1.16v-48.76a26.186 26.186 0 00-14.135-23.297c-18.819-9.805-45.518-10.489-65.453-2.082-19.946-8.407-46.644-7.724-65.458 2.082a26.18 26.18 0 00-14.138 23.297v48.76c0 .64.525 1.16 1.165 1.16h16.278a1.16 1.16 0 001.163-1.16v-48.76zm448.589 0a26.186 26.186 0 0114.133-23.297h.001c20.255-10.553 49.669-10.553 69.927 0a26.154 26.154 0 0113.205 16.37h-22.066c-14.797-7.567-37.772-7.531-52.472.129-2.585 1.343-4.125 3.886-4.125 6.797v2.377h78.429c.64 0 1.165.521 1.165 1.16v19.823a26.188 26.188 0 01-14.139 23.295c-20.255 10.555-49.665 10.555-69.916 0a26.155 26.155 0 01-13.216-16.375h22.064c14.794 7.568 37.774 7.532 52.471-.122 2.588-1.343 4.126-3.883 4.126-6.798v-2.382H547.94a1.162 1.162 0 01-1.163-1.161z" fill="#FFF"/><g fill="#FFF"><path d="M550.153 185.352c0 .58.475.87 1.419.87.627 0 1.633-.306 3.021-.915l-.412 1.922c-1.633.352-3.311 1.159-5.034 2.427.137-1.146.67-1.924 1.601-2.335a42.16 42.16 0 00-1.419-.16c-.518-.151-.778-.466-.778-.938 0-.824.366-1.64 1.099-2.449.733-.809 1.502-1.214 2.313-1.214.747 0 1.12.177 1.12.527v1.121c-1.953-.169-2.93.213-2.93 1.144zm.915 16.09c-.473-3.082-.944-6.164-1.419-9.246l2.152-2.609 1.417 8.742c.551 3.511.824 6.441.824 8.79 0 .563-.145 1.168-.434 1.808l-.871 1.694c-.532-2.427-1.09-5.486-1.669-9.179zm-4.692-2.061c.627 1.481.94 2.992.94 4.533 0 .991-.185 1.923-.55 2.791l-10.894-.021c-.307-.214-.459-.733-.459-1.557 0-.854.152-1.411.459-1.671l9.475.046c-.017-.87-.352-1.738-1.008-2.609-.824-1.113-1.313-1.869-1.463-2.266l2.012-3.296c.153.717.649 2.068 1.488 4.05zm-5.126 12.246l-2.014 2.288-2.816-2.288 2.016-2.288zm5.378.207l-2.013 2.265-2.814-2.265 2.013-2.289z"/><path d="M535.483 199.381c.624 1.481.937 2.992.937 4.533 0 .991-.184 1.923-.547 2.791l-10.898-.021c-.302-.214-.455-.733-.455-1.557 0-.854.153-1.411.455-1.671l9.478.046c-.017-.87-.352-1.738-1.008-2.609-.824-1.113-1.313-1.869-1.463-2.266l2.014-3.296c.151.717.648 2.068 1.487 4.05zm-2.494-11.854l-2.017 2.289-2.837-2.289 2.037-2.289z"/><path d="M511.725 205.127c0-1.083.168-1.64.503-1.671 1.694-.168 2.853-.389 3.48-.664.977-.441 1.761-1.304 2.356-2.586l.437.16c1.112-2.258 2.143-3.387 3.087-3.387 1.1 0 2.053.801 2.862 2.401.702 1.374 1.054 2.679 1.054 3.915 0 .594-.185 1.305-.551 2.13-.304.656-.616 1.318-.937 1.99-1.145-.244-2.336-.711-3.571-1.396-1.389-.778-2.35-1.579-2.886-2.402-.547 2.044-2.341 3.066-5.377 3.066-.304.001-.457-.519-.457-1.556zm11.789-1.237c0-.777-.314-1.608-.941-2.493-.67-.976-1.372-1.466-2.103-1.466-.521 0-1.009.336-1.467 1.008 1.571 1.51 3.074 2.494 4.511 2.951z"/><path d="M510.031 206.684c-.551-2.564-1.113-5.555-1.694-8.973a2424.5 2424.5 0 01-1.463-9.04l2.15-2.61c.473 2.899.944 5.799 1.419 8.699.565 3.509.846 6.408.846 8.696h2.313v3.228zm-25.604-1.557c0-.854.175-1.396.526-1.625h10.805c-.411-1.557-2.876-3.815-7.394-6.775l-.182 1.122c-.674-.595-1.344-1.189-2.017-1.785-.624-.655-.938-1.428-.938-2.312 0-1.816 1.624-3.716 4.875-5.699 2.242-1.373 4.737-2.533 7.484-3.479l-.595 3.364c-1.436.319-3.127.97-5.081 1.945-1.907.93-3.465 1.87-4.671 2.815 2.414 1.404 4.51 2.929 6.297 4.577 2.531 2.334 3.799 4.425 3.799 6.271v3.157h-12.384c-.349-.255-.524-.783-.524-1.576z"/><path d="M484.496 199.381c.625 1.481.937 2.992.937 4.533 0 .991-.182 1.923-.547 2.791l-10.897-.021c-.302-.214-.455-.733-.455-1.557 0-.854.153-1.411.455-1.671l9.479.046c-.017-.87-.353-1.738-1.009-2.609-.823-1.113-1.312-1.869-1.464-2.266l2.015-3.296c.152.717.647 2.068 1.486 4.05zm-2.493-11.854l-2.017 2.289-2.836-2.289 2.036-2.289z"/><path d="M473.603 199.381c.623 1.481.938 2.992.938 4.533 0 .991-.184 1.923-.55 2.791l-10.896-.021c-.304-.214-.457-.733-.457-1.557 0-.854.153-1.411.457-1.671l9.477.046c-.016-.87-.35-1.738-1.007-2.609-.823-1.113-1.313-1.869-1.466-2.266l2.015-3.296c.153.717.649 2.068 1.489 4.05zm-4.922-8.217l-2.015 2.289-2.816-2.289 2.017-2.288zm5.377.207l-2.012 2.267-2.816-2.267 2.014-2.288z"/><path d="M447.921 205.768c.686-.671 2.189-1.533 4.511-2.586 1.906-.854 3.118-1.848 3.638-2.976l.435.16c1.099-2.258 2.129-3.387 3.092-3.387 1.097 0 2.06.801 2.883 2.401.686 1.374 1.029 2.679 1.029 3.915 0 .549-.184 1.25-.549 2.105-.321.672-.633 1.343-.939 2.015-1.145-.26-2.333-.726-3.568-1.396-1.39-.763-2.353-1.564-2.884-2.402-.293 1.098-1.2 1.975-2.724 2.631a414.55 414.55 0 01-3.938 1.58c-1.326.764-1.99 1.847-1.99 3.25 0 1.603.824 3.014 2.473 4.233 1.326.962 2.897 1.648 4.713 2.06h-.571c-5.22.062-7.828-1.715-7.828-5.332-.003-2.777.737-4.867 2.217-6.271zm13.596-1.878c0-.777-.313-1.608-.939-2.493-.67-.976-1.372-1.466-2.104-1.466-.518 0-1.006.336-1.465 1.008 1.569 1.51 3.075 2.494 4.508 2.951z"/></g><path d="M240.901 69.925c0 .45-.247.86-.648 1.067-.927.482-2.274.482-3.205 0a1.202 1.202 0 01-.645-1.067v-1.078c0-.449.247-.86.645-1.066.93-.484 2.277-.484 3.205 0 .401.207.648.617.648 1.066zm-18.12 0c0 .45-.248.86-.647 1.067-.928.482-2.275.482-3.205 0a1.2 1.2 0 01-.647-1.067v-1.078c0-.449.248-.86.647-1.066.93-.484 2.277-.484 3.205 0 .399.207.647.617.647 1.066zm6.749 0c0 .45-.248.86-.647 1.067-.927.482-2.275.482-3.205 0a1.2 1.2 0 01-.647-1.067v-1.078c0-.449.248-.86.647-1.066.929-.484 2.278-.484 3.205 0 .399.207.647.617.647 1.066zm-36.241 0c0 .45-.246.86-.646 1.067-.927.482-2.274.482-3.205 0a1.2 1.2 0 01-.648-1.067v-1.078c0-.449.25-.86.648-1.066.93-.484 2.277-.484 3.205 0 .4.207.646.617.646 1.066zm6.748 0c0 .45-.246.86-.645 1.067-.928.482-2.275.482-3.205 0a1.2 1.2 0 01-.647-1.067v-1.078c0-.449.248-.86.647-1.066.93-.484 2.276-.484 3.205 0 .399.207.645.617.645 1.066zm69.114-7.227c2.377.467 5.042.18 7.054-.869.38-.197.706-.459.985-.762 4.892 2.485 11.917 2.466 16.774-.063a6.335 6.335 0 003.42-5.634v-5.649a6.336 6.336 0 00-3.42-5.634c-4.55-2.37-11.005-2.537-15.829-.503v-1.129a.276.276 0 00-.083-.199.278.278 0 00-.307-.06l-3.764 1.881a.514.514 0 00-.179.122.555.555 0 00-.166.396l.008 12.898a.556.556 0 01-.303.502c-1.089.567-2.798.567-3.887 0a.557.557 0 01-.304-.502l-.004-7.771a6.333 6.333 0 00-3.417-5.634c-4.9-2.552-12.009-2.552-16.905 0a6.332 6.332 0 00-3.419 5.634v5.649a6.332 6.332 0 003.417 5.634h.002c4.548 2.37 11.004 2.534 15.828.501v2.301c0 .705-.374 1.32-.999 1.644-3.554 1.851-9.11 1.86-12.689.029h-5.335a6.319 6.319 0 003.196 3.96c4.896 2.552 12.01 2.552 16.905 0a6.34 6.34 0 003.421-5.634zm-4.504-7.328c0 .705-.372 1.318-.997 1.644-3.573 1.863-9.175 1.863-12.749 0a1.822 1.822 0 01-.998-1.644v-5.649c0-.705.372-1.319.998-1.644 3.574-1.863 9.176-1.863 12.749 0 .625.325.997.939.997 1.644zm28.237 0c0 .706-.371 1.319-.999 1.644-3.575 1.862-9.176 1.862-12.753 0a1.823 1.823 0 01-.997-1.644v-5.649c0-.704.374-1.319.997-1.644 3.577-1.863 9.178-1.863 12.753 0 .625.325.999.94.999 1.644zM240.62 43.129h-3.937a.281.281 0 00-.281.28v12.897c0 .49-.259.917-.695 1.142-2.482 1.294-6.376 1.294-8.859 0a1.264 1.264 0 01-.692-1.142l-.005-12.897a.281.281 0 00-.281-.28h-3.937a.281.281 0 00-.281.28l.006 12.897c0 .49-.259.917-.693 1.142-2.484 1.294-6.376 1.294-8.861 0a1.265 1.265 0 01-.693-1.142l-.023-17.957a.281.281 0 00-.391-.26l-3.766 1.881a.562.562 0 00-.342.517l.023 15.818c0 .49-.259.917-.694 1.142-2.483 1.294-6.376 1.294-8.859 0a1.264 1.264 0 01-.692-1.142V43.409a.281.281 0 00-.281-.28h-3.937a.28.28 0 00-.281.28v12.897c0 .49-.259.917-.692 1.142-2.484 1.294-6.377 1.294-8.861 0a1.268 1.268 0 01-.684-.968l-.011-13.071a.28.28 0 00-.281-.28H177.7a.282.282 0 00-.281.28v12.897c0 .49-.259.917-.692 1.142-2.483 1.294-6.377 1.294-8.859 0a1.265 1.265 0 01-.693-1.142l-.007-12.897a.28.28 0 00-.281-.28h-3.937a.282.282 0 00-.281.28l.008 12.897c0 .49-.259.917-.695 1.142-2.484 1.294-6.376 1.294-8.861 0a1.265 1.265 0 01-.693-1.142l-.022-12.897a.28.28 0 00-.281-.28h-3.938a.28.28 0 00-.28.28l.018 20.396a1.82 1.82 0 01-.997 1.644c-3.573 1.863-9.173 1.863-12.749 0h-5.281a6.327 6.327 0 003.205 3.99c4.896 2.552 12.005 2.552 16.905 0a6.336 6.336 0 003.417-5.634l.003-1.708c3.792 1.295 8.549 1.054 11.977-.73a4.77 4.77 0 00.514-.32c.169.116.343.224.527.32h.002c3.97 2.068 9.73 2.068 13.702 0 .183-.096.354-.203.52-.316.168.113.339.22.521.316 3.97 2.068 9.734 2.068 13.705 0a5.55 5.55 0 00.521-.316c.167.113.339.22.521.316 3.97 2.068 9.733 2.068 13.705 0 .183-.096.354-.203.52-.316.166.113.339.22.519.316h.002c3.97 2.068 9.732 2.068 13.703 0 .182-.095.35-.206.516-.32.169.116.343.224.527.32 3.97 2.068 9.733 2.068 13.705 0a5.134 5.134 0 002.77-4.566V43.409a.288.288 0 00-.285-.28z" fill="#D9272E"/></svg>